<svg width="270" height="47" viewBox="0 0 270 47" fill="none"
     xmlns="http://www.w3.org/2000/svg">
    <path d="M15.6482 45.6958V27.1678L0.000207007 0.895798H13.1522L21.7922 15.9038L30.3362 0.895798H43.1362L27.4882 27.2958V45.6958H15.6482ZM38.8887 45.6958L55.4327 0.895798H69.2567L85.8327 45.6958H72.5527L69.7367 37.1518H54.6007L51.8167 45.6958H38.8887ZM57.1927 27.3598H67.0807L62.1527 13.2158L57.1927 27.3598ZM109.646 46.6558C105.38 46.6558 101.796 45.8238 98.8942 44.1598C96.0142 42.4745 93.8275 40.1491 92.3342 37.1838C90.8622 34.2185 90.1262 30.8051 90.1262 26.9438V0.895798H101.902V27.4878C101.902 30.2398 102.574 32.2878 103.918 33.6318C105.284 34.9545 107.193 35.6158 109.646 35.6158C112.1 35.6158 113.998 34.9545 115.342 33.6318C116.686 32.2878 117.358 30.2398 117.358 27.4878V0.895798H129.198V26.9438C129.198 30.7838 128.452 34.1865 126.958 37.1518C125.486 40.1171 123.3 42.4425 120.398 44.1278C117.497 45.8131 113.913 46.6558 109.646 46.6558ZM155.195 46.6558C151.696 46.6558 148.293 46.1331 144.987 45.0878C141.701 44.0425 138.917 42.5278 136.635 40.5438L142.139 31.8398C143.056 32.8425 144.24 33.7171 145.691 34.4638C147.163 35.2105 148.731 35.7865 150.395 36.1918C152.059 36.5971 153.659 36.7998 155.195 36.7998C157.136 36.7998 158.725 36.5011 159.963 35.9038C161.221 35.2851 161.851 34.3998 161.851 33.2478C161.851 32.2238 161.381 31.3811 160.443 30.7198C159.525 30.0371 157.819 29.3651 155.323 28.7038L151.739 27.7118C147.003 26.4105 143.6 24.6185 141.531 22.3358C139.483 20.0531 138.459 17.3225 138.459 14.1438C138.459 12.1171 138.885 10.2505 139.739 8.5438C140.613 6.8158 141.829 5.3118 143.387 4.0318C144.965 2.7518 146.811 1.7598 148.923 1.0558C151.056 0.351798 153.36 -0.000202179 155.835 -0.000202179C159.333 -0.000202179 162.587 0.511798 165.595 1.5358C168.624 2.53846 171.056 3.9358 172.891 5.7278L167.195 14.2078C166.405 13.3331 165.413 12.5758 164.219 11.9358C163.045 11.2745 161.755 10.7625 160.347 10.3998C158.939 10.0158 157.52 9.8238 156.091 9.8238C154.832 9.8238 153.723 9.9838 152.763 10.3038C151.824 10.6238 151.099 11.0718 150.587 11.6478C150.075 12.2025 149.819 12.8531 149.819 13.5998C149.819 14.2398 150.021 14.7731 150.427 15.1998C150.832 15.6265 151.515 16.0318 152.475 16.4158C153.435 16.7998 154.736 17.2265 156.379 17.6958L159.963 18.7518C164.677 20.1385 168.08 21.8665 170.171 23.9358C172.261 26.0051 173.307 28.6718 173.307 31.9358C173.307 34.8371 172.56 37.3971 171.067 39.6158C169.595 41.8345 167.493 43.5625 164.763 44.7998C162.053 46.0371 158.864 46.6558 155.195 46.6558ZM180.288 45.6958V0.895798H192L209.056 26.6558V0.895798H220.448V45.6958H208.736L191.68 19.5518V45.6958H180.288ZM249.896 46.6558C245.63 46.6558 242.046 45.8238 239.144 44.1598C236.264 42.4745 234.078 40.1491 232.584 37.1838C231.112 34.2185 230.376 30.8051 230.376 26.9438V0.895798H242.152V27.4878C242.152 30.2398 242.824 32.2878 244.168 33.6318C245.534 34.9545 247.443 35.6158 249.896 35.6158C252.35 35.6158 254.248 34.9545 255.592 33.6318C256.936 32.2878 257.608 30.2398 257.608 27.4878V0.895798H269.448V26.9438C269.448 30.7838 268.702 34.1865 267.208 37.1518C265.736 40.1171 263.55 42.4425 260.648 44.1278C257.747 45.8131 254.163 46.6558 249.896 46.6558Z"
          fill="black"/>
</svg>
